<?xml version="1.0" encoding="iso-8859-1"?>
<!-- Generator: Adobe Illustrator 18.0.0, SVG Export Plug-In . SVG Version: 6.00 Build 0)  -->
<!DOCTYPE svg PUBLIC "-//W3C//DTD SVG 1.1//EN" "http://www.w3.org/Graphics/SVG/1.1/DTD/svg11.dtd">
<svg version="1.1" id="Capa_1" xmlns="http://www.w3.org/2000/svg" xmlns:xlink="http://www.w3.org/1999/xlink" x="0px" y="0px"
	 viewBox="0 0 297 297" style="enable-background:new 0 0 297 297;" xml:space="preserve">
<g>
	<path d="M30.664,113.449l129.031,35.188c2.256,0.616,4.582,0.928,6.913,0.928c11.419,0,21.581-7.457,24.712-18.133
		c1.863-6.351,1.094-13.06-2.166-18.892c-3.367-6.025-8.939-10.358-15.688-12.199l-29.665-8.091
		c0.005-6.442-1.657-12.804-4.939-18.548c-4.962-8.685-13.01-14.916-22.659-17.548c-16.622-4.531-33.723,2.927-42.091,17.089
		l-29.675-8.093c-2.256-0.616-4.582-0.928-6.915-0.928c-11.419,0-21.58,7.457-24.712,18.133c-1.862,6.351-1.094,13.06,2.165,18.893
		C18.343,107.275,23.914,111.608,30.664,113.449z M111.001,75.225c4.557,1.243,8.355,4.186,10.697,8.285
		c0.568,0.995,1.031,2.031,1.395,3.093l-28.276-7.712C99.12,75.193,105.124,73.623,111.001,75.225z M168.265,119.412
		c1.587,0.434,2.878,1.418,3.636,2.773c0.458,0.82,0.909,2.126,0.452,3.684c-0.668,2.277-3.083,3.93-5.744,3.93
		c-0.575,0-1.151-0.078-1.713-0.23L35.864,94.379c-1.586-0.433-2.877-1.418-3.634-2.773c-0.459-0.82-0.91-2.126-0.452-3.686
		c0.668-2.277,3.083-3.93,5.743-3.93c0.576,0,1.152,0.078,1.714,0.23L168.265,119.412z"/>
	<path d="M294.105,166.255c-1.854-1.854-4.367-2.895-6.989-2.895L9.884,163.361c-5.458,0-9.884,4.425-9.884,9.883v43.228
		c0,14.17,11.527,25.696,25.697,25.696H159.44c14.17,0,25.697-11.526,25.697-25.696v-0.728h101.979c5.458,0,9.884-4.426,9.884-9.884
		v-32.617C297,170.622,295.958,168.108,294.105,166.255z M159.44,222.401H25.697c-3.214,0-5.931-2.716-5.931-5.93v-33.344
		l145.604-0.001v33.345C165.37,219.685,162.654,222.401,159.44,222.401z M277.233,195.976h-92.096v-12.85h92.096V195.976z"/>
</g>
<g>
</g>
<g>
</g>
<g>
</g>
<g>
</g>
<g>
</g>
<g>
</g>
<g>
</g>
<g>
</g>
<g>
</g>
<g>
</g>
<g>
</g>
<g>
</g>
<g>
</g>
<g>
</g>
<g>
</g>
</svg>
